<svg id="Capa_1" enable-background="new 0 0 512 512" height="512" viewBox="0 0 512 512" width="512" xmlns="http://www.w3.org/2000/svg" xmlns:xlink="http://www.w3.org/1999/xlink"><linearGradient id="SVGID_1_" gradientUnits="userSpaceOnUse" x1="256" x2="256" y1="481" y2="31"><stop offset="0" stop-color="#5558ff"/><stop offset="1" stop-color="#00c0ff"/></linearGradient><g><g><g><path d="m377 121h-242c-24.813 0-45 20.187-45 45v180c0 24.813 20.187 45 45 45h242c24.813 0 45-20.187 45-45v-180c0-24.813-20.187-45-45-45zm15 225c0 8.271-6.729 15-15 15h-242c-8.271 0-15-6.729-15-15v-180c0-8.271 6.729-15 15-15h242c8.271 0 15 6.729 15 15zm-84.292-103.417-90-45c-4.652-2.326-10.174-2.076-14.594.657-4.423 2.733-7.114 7.561-7.114 12.76v90c0 5.199 2.691 10.027 7.114 12.76 4.431 2.738 9.954 2.977 14.594.657l90-45c5.082-2.542 8.292-7.735 8.292-13.417s-3.21-10.875-8.292-13.417zm-81.708 34.146v-41.459l41.459 20.73zm211-245.729h-362c-41.355 0-75 33.645-75 75v300c0 41.355 33.645 75 75 75h362c41.355 0 75-33.645 75-75v-300c0-41.355-33.645-75-75-75zm45 375c0 24.813-20.187 45-45 45h-362c-24.813 0-45-20.187-45-45v-300c0-24.813 20.187-45 45-45h362c24.813 0 45 20.187 45 45z" fill="url(#SVGID_1_)"/></g></g></g></svg>